<svg width="66" height="75" viewBox="0 0 66 75" fill="none" xmlns="http://www.w3.org/2000/svg">
<g filter="url(#filter0_dd_24_30410)">
<path d="M42.2782 29H26.0414C24.3644 29 23 30.329 23 31.9625V50.0375C23 51.671 24.3644 53 26.0413 53H42.2782C42.6768 53 43 52.6852 43 52.2969V47.7781V29.7031C43 29.3148 42.6769 29 42.2782 29ZM27.6744 37.2876C27.7593 37.0331 27.9852 36.8475 28.2571 36.8091L31.0873 36.4086L32.3527 33.9107C32.4743 33.6707 32.7252 33.5188 33 33.5188C33.2748 33.5188 33.5258 33.6707 33.6473 33.9107L34.9129 36.4086L37.7429 36.8091C38.0148 36.8475 38.2407 37.0331 38.3256 37.2876C38.4105 37.5421 38.3397 37.8215 38.143 38.0083L36.0953 39.9528L36.572 42.6599C36.5838 42.7105 36.59 42.7631 36.59 42.8171C36.59 43.205 36.2675 43.5196 35.8693 43.5202C35.8686 43.5202 35.8679 43.5202 35.8671 43.5202C35.7522 43.5202 35.6369 43.4935 35.5313 43.4394L33 42.1431L30.4688 43.4394C30.3632 43.4935 30.2478 43.5202 30.1329 43.5202C29.9832 43.5202 29.8343 43.4749 29.7086 43.3859C29.4863 43.2287 29.3749 42.962 29.4214 42.6982L29.9049 39.9528L27.857 38.0084C27.6604 37.8215 27.5895 37.5421 27.6744 37.2876ZM41.5563 51.5938H26.0414C25.1604 51.5938 24.4437 50.8956 24.4437 50.0375C24.4437 50.0079 24.4447 49.9785 24.4464 49.9493C24.4936 49.132 25.1909 48.4813 26.0414 48.4813H36.5034H41.5563V51.5938Z" fill="white"/>
</g>
<path opacity="0.9" d="M10.18 65H12.928L16 74H13.864L13.18 71.912H9.856L9.184 74H7.132L10.18 65ZM12.7 70.28L11.524 66.656L10.348 70.28H12.7ZM17.4751 74.096C17.3391 74.096 17.2191 74.088 17.1151 74.072C17.0111 74.064 16.9151 74.052 16.8271 74.036V72.188C16.9071 72.204 16.9871 72.212 17.0671 72.212C17.2351 72.212 17.3791 72.172 17.4991 72.092C17.6271 72.004 17.7271 71.848 17.7991 71.624C17.8791 71.4 17.9351 71.096 17.9671 70.712C18.0071 70.328 18.0271 69.832 18.0271 69.224V67.184H23.4631V74H21.5551V68.792H19.7911L19.7671 69.74C19.7591 70.484 19.7151 71.128 19.6351 71.672C19.5551 72.216 19.4271 72.668 19.2511 73.028C19.0751 73.388 18.8431 73.656 18.5551 73.832C18.2671 74.008 17.9071 74.096 17.4751 74.096ZM25.1603 67.184H27.0803V69.236H28.4603C28.9883 69.236 29.4323 69.296 29.7923 69.416C30.1523 69.528 30.4403 69.688 30.6563 69.896C30.8723 70.104 31.0283 70.352 31.1243 70.64C31.2203 70.92 31.2683 71.228 31.2683 71.564V71.624C31.2683 71.952 31.2123 72.26 31.1003 72.548C30.9963 72.836 30.8323 73.088 30.6083 73.304C30.3923 73.52 30.1163 73.692 29.7803 73.82C29.4443 73.94 29.0483 74 28.5923 74H25.1603V67.184ZM28.1483 72.56C28.5483 72.56 28.8443 72.488 29.0363 72.344C29.2363 72.2 29.3363 71.964 29.3363 71.636V71.564C29.3363 71.252 29.2443 71.028 29.0603 70.892C28.8763 70.748 28.5883 70.676 28.1963 70.676H27.0203V72.56H28.1483ZM35.9297 74.168C35.3857 74.168 34.8777 74.08 34.4057 73.904C33.9337 73.72 33.5217 73.46 33.1697 73.124C32.8257 72.78 32.5537 72.36 32.3537 71.864C32.1537 71.36 32.0537 70.784 32.0537 70.136C32.0537 69.384 32.1057 68.696 32.2097 68.072C32.3217 67.448 32.5217 66.904 32.8097 66.44C33.0977 65.968 33.4937 65.588 33.9977 65.3C34.5017 65.012 35.1537 64.832 35.9537 64.76C36.3777 64.72 36.7577 64.692 37.0937 64.676C37.4297 64.652 37.7257 64.632 37.9817 64.616C38.2457 64.6 38.4697 64.58 38.6537 64.556C38.8457 64.532 39.0057 64.496 39.1337 64.448V66.092C39.0537 66.14 38.9457 66.18 38.8097 66.212C38.6737 66.244 38.4977 66.272 38.2817 66.296C38.0657 66.32 37.8057 66.344 37.5017 66.368C37.1977 66.392 36.8377 66.416 36.4217 66.44C35.8777 66.472 35.4257 66.54 35.0657 66.644C34.7137 66.748 34.4257 66.892 34.2017 67.076C33.9857 67.252 33.8257 67.472 33.7217 67.736C33.6257 67.992 33.5577 68.292 33.5177 68.636H33.5537C33.8577 68.22 34.2497 67.9 34.7297 67.676C35.2097 67.444 35.7617 67.328 36.3857 67.328C36.8177 67.328 37.2297 67.4 37.6217 67.544C38.0137 67.688 38.3617 67.904 38.6657 68.192C38.9697 68.472 39.2097 68.82 39.3857 69.236C39.5697 69.644 39.6617 70.116 39.6617 70.652C39.6617 71.172 39.5737 71.648 39.3977 72.08C39.2217 72.512 38.9697 72.884 38.6417 73.196C38.3137 73.5 37.9217 73.74 37.4657 73.916C37.0097 74.084 36.4977 74.168 35.9297 74.168ZM35.9057 72.596C36.1537 72.596 36.3857 72.552 36.6017 72.464C36.8177 72.376 37.0057 72.252 37.1657 72.092C37.3337 71.924 37.4617 71.724 37.5497 71.492C37.6457 71.26 37.6937 70.996 37.6937 70.7C37.6937 70.364 37.6417 70.076 37.5377 69.836C37.4337 69.596 37.2937 69.396 37.1177 69.236C36.9497 69.076 36.7537 68.96 36.5297 68.888C36.3057 68.808 36.0737 68.768 35.8337 68.768C35.5777 68.768 35.3377 68.816 35.1137 68.912C34.8977 69 34.7097 69.128 34.5497 69.296C34.3897 69.464 34.2657 69.664 34.1777 69.896C34.0897 70.128 34.0457 70.384 34.0457 70.664C34.0457 70.952 34.0897 71.216 34.1777 71.456C34.2737 71.688 34.4017 71.892 34.5617 72.068C34.7297 72.236 34.9257 72.368 35.1497 72.464C35.3817 72.552 35.6337 72.596 35.9057 72.596ZM44.306 74.168C43.738 74.168 43.218 74.084 42.746 73.916C42.282 73.748 41.882 73.508 41.546 73.196C41.21 72.884 40.95 72.508 40.766 72.068C40.582 71.62 40.49 71.12 40.49 70.568C40.49 70.08 40.578 69.62 40.754 69.188C40.93 68.756 41.182 68.38 41.51 68.06C41.846 67.732 42.246 67.476 42.71 67.292C43.182 67.1 43.71 67.004 44.294 67.004C44.886 67.004 45.414 67.1 45.878 67.292C46.35 67.484 46.746 67.744 47.066 68.072C47.394 68.392 47.646 68.768 47.822 69.2C47.998 69.632 48.086 70.088 48.086 70.568C48.086 71.112 47.998 71.608 47.822 72.056C47.646 72.496 47.394 72.872 47.066 73.184C46.738 73.496 46.342 73.74 45.878 73.916C45.414 74.084 44.89 74.168 44.306 74.168ZM44.342 72.596C44.63 72.596 44.882 72.544 45.098 72.44C45.322 72.328 45.51 72.184 45.662 72.008C45.814 71.824 45.926 71.608 45.998 71.36C46.078 71.112 46.118 70.852 46.118 70.58C46.118 70.308 46.078 70.052 45.998 69.812C45.918 69.572 45.798 69.36 45.638 69.176C45.486 68.992 45.294 68.848 45.062 68.744C44.838 68.632 44.582 68.576 44.294 68.576C44.006 68.576 43.746 68.628 43.514 68.732C43.29 68.836 43.098 68.98 42.938 69.164C42.786 69.34 42.666 69.548 42.578 69.788C42.498 70.028 42.458 70.288 42.458 70.568C42.458 70.84 42.494 71.1 42.566 71.348C42.646 71.596 42.762 71.812 42.914 71.996C43.074 72.18 43.27 72.328 43.502 72.44C43.742 72.544 44.022 72.596 44.342 72.596ZM49.3478 67.184H52.0238L53.4638 71.732L54.8798 67.184H57.5438V74H55.8038V69.62L55.8518 68.804H55.8278L54.1718 74H52.6958L51.0638 68.804H51.0398L51.0878 69.62V74H49.3478V67.184Z" fill="white"/>
<defs>
<filter id="filter0_dd_24_30410" x="2" y="11" width="62" height="62" filterUnits="userSpaceOnUse" color-interpolation-filters="sRGB">
<feFlood flood-opacity="0" result="BackgroundImageFix"/>
<feColorMatrix in="SourceAlpha" type="matrix" values="0 0 0 0 0 0 0 0 0 0 0 0 0 0 0 0 0 0 127 0" result="hardAlpha"/>
<feOffset dy="2"/>
<feGaussianBlur stdDeviation="1"/>
<feComposite in2="hardAlpha" operator="out"/>
<feColorMatrix type="matrix" values="0 0 0 0 0 0 0 0 0 0 0 0 0 0 0 0 0 0 0.25 0"/>
<feBlend mode="normal" in2="BackgroundImageFix" result="effect1_dropShadow_24_30410"/>
<feColorMatrix in="SourceAlpha" type="matrix" values="0 0 0 0 0 0 0 0 0 0 0 0 0 0 0 0 0 0 127 0" result="hardAlpha"/>
<feOffset dy="1"/>
<feGaussianBlur stdDeviation="9.5"/>
<feComposite in2="hardAlpha" operator="out"/>
<feColorMatrix type="matrix" values="0 0 0 0 0.000957709 0 0 0 0 0.179997 0 0 0 0 0.597756 0 0 0 0.57 0"/>
<feBlend mode="normal" in2="effect1_dropShadow_24_30410" result="effect2_dropShadow_24_30410"/>
<feBlend mode="normal" in="SourceGraphic" in2="effect2_dropShadow_24_30410" result="shape"/>
</filter>
</defs>
</svg>
