<svg width="66" height="75" viewBox="0 0 66 75" fill="none" xmlns="http://www.w3.org/2000/svg">
<g filter="url(#filter0_dd_24_30402)">
<path fill-rule="evenodd" clip-rule="evenodd" d="M21 30.2857C21 29.9447 21.1355 29.6177 21.3766 29.3766C21.6177 29.1355 21.9447 29 22.2857 29H27.2314L27.3257 29.0034H38.676L38.7686 29H43.7143C44.0553 29 44.3823 29.1355 44.6234 29.3766C44.8645 29.6177 45 29.9447 45 30.2857V35.2314C45.0002 36.7542 44.4428 38.2244 43.4331 39.3642C42.4233 40.5041 41.0311 41.2348 39.5194 41.4183C39.1384 42.5836 38.4518 43.6254 37.5313 44.4352C36.6108 45.2451 35.4901 45.7933 34.2857 46.0229V48.4286C34.2857 49.5331 35.1811 50.4286 36.2857 50.4286H38.7686C39.1096 50.4286 39.4366 50.564 39.6777 50.8051C39.9188 51.0463 40.0543 51.3733 40.0543 51.7143C40.0543 52.0553 39.9188 52.3823 39.6777 52.6234C39.4366 52.8645 39.1096 53 38.7686 53H27.2297C26.8887 53 26.5617 52.8645 26.3206 52.6234C26.0795 52.3823 25.944 52.0553 25.944 51.7143C25.944 51.3733 26.0795 51.0463 26.3206 50.8051C26.5617 50.564 26.8887 50.4286 27.2297 50.4286H29.7143C30.8189 50.4286 31.7143 49.5331 31.7143 48.4286V46.0229C30.5099 45.7933 29.3892 45.2451 28.4687 44.4352C27.5482 43.6254 26.8616 42.5836 26.4806 41.4183C24.9689 41.2348 23.5767 40.5041 22.5669 39.3642C21.5572 38.2244 20.9998 36.7542 21 35.2314V30.2857ZM25.9457 38.6583V31.5714H23.5714V35.2314C23.5714 36.8 24.5589 38.1389 25.9457 38.66V38.6583ZM40.0543 31.5714V38.6583C40.7518 38.3966 41.3528 37.9283 41.777 37.316C42.2013 36.7036 42.4286 35.9764 42.4286 35.2314V31.5714H40.0543Z" fill="url(#paint0_linear_24_30402)"/>
</g>
<path opacity="0.9" d="M17.96 74.132C17.848 74.132 17.72 74.124 17.576 74.108C17.432 74.092 17.32 74.072 17.24 74.048V72.152C17.28 72.16 17.324 72.168 17.372 72.176C17.42 72.176 17.468 72.176 17.516 72.176C17.804 72.176 18.036 72.096 18.212 71.936C18.396 71.768 18.536 71.496 18.632 71.12C18.728 70.736 18.792 70.232 18.824 69.608C18.856 68.976 18.872 68.192 18.872 67.256V65H25.412V74H23.348V66.788H20.756V67.628C20.756 68.804 20.724 69.804 20.66 70.628C20.604 71.452 20.476 72.124 20.276 72.644C20.076 73.164 19.792 73.544 19.424 73.784C19.064 74.016 18.576 74.132 17.96 74.132ZM27.215 67.184H29.075V71.576L31.703 67.184H33.635V74H31.763V69.62L29.147 74H27.215V67.184ZM35.3244 67.184H40.4004V68.792H37.2324V74H35.3244V67.184ZM41.465 67.184H43.325V71.576L45.953 67.184H47.885V74H46.013V69.62L43.397 74H41.465V67.184Z" fill="white"/>
<defs>
<filter id="filter0_dd_24_30402" x="2" y="11" width="62" height="62" filterUnits="userSpaceOnUse" color-interpolation-filters="sRGB">
<feFlood flood-opacity="0" result="BackgroundImageFix"/>
<feColorMatrix in="SourceAlpha" type="matrix" values="0 0 0 0 0 0 0 0 0 0 0 0 0 0 0 0 0 0 127 0" result="hardAlpha"/>
<feOffset dy="2"/>
<feGaussianBlur stdDeviation="1"/>
<feComposite in2="hardAlpha" operator="out"/>
<feColorMatrix type="matrix" values="0 0 0 0 0 0 0 0 0 0 0 0 0 0 0 0 0 0 0.25 0"/>
<feBlend mode="normal" in2="BackgroundImageFix" result="effect1_dropShadow_24_30402"/>
<feColorMatrix in="SourceAlpha" type="matrix" values="0 0 0 0 0 0 0 0 0 0 0 0 0 0 0 0 0 0 127 0" result="hardAlpha"/>
<feOffset dy="1"/>
<feGaussianBlur stdDeviation="9.5"/>
<feComposite in2="hardAlpha" operator="out"/>
<feColorMatrix type="matrix" values="0 0 0 0 0.000957709 0 0 0 0 0.179997 0 0 0 0 0.597756 0 0 0 0.57 0"/>
<feBlend mode="normal" in2="effect1_dropShadow_24_30402" result="effect2_dropShadow_24_30402"/>
<feBlend mode="normal" in="SourceGraphic" in2="effect2_dropShadow_24_30402" result="shape"/>
</filter>
<linearGradient id="paint0_linear_24_30402" x1="33" y1="29" x2="33" y2="53" gradientUnits="userSpaceOnUse">
<stop offset="0.288462" stop-color="white"/>
<stop offset="1" stop-color="#C5D6FF"/>
</linearGradient>
</defs>
</svg>
