<svg width="66" height="77" viewBox="0 0 66 77" fill="none" xmlns="http://www.w3.org/2000/svg">
<g filter="url(#filter0_dd_24_30416)">
<path d="M29.9297 32.225L31.5609 35H28.125C27.0891 35 26.25 34.1609 26.25 33.125C26.25 32.0891 27.0891 31.25 28.125 31.25H28.2281C28.9266 31.25 29.5781 31.6203 29.9297 32.225ZM24 33.125C24 33.8 24.1641 34.4375 24.45 35H22.5C21.6703 35 21 35.6703 21 36.5V39.5C21 40.3297 21.6703 41 22.5 41H43.5C44.3297 41 45 40.3297 45 39.5V36.5C45 35.6703 44.3297 35 43.5 35H41.55C41.8359 34.4375 42 33.8 42 33.125C42 30.8469 40.1531 29 37.875 29H37.7719C36.2766 29 34.8891 29.7922 34.1297 31.0813L33 33.0078L31.8703 31.0859C31.1109 29.7922 29.7234 29 28.2281 29H28.125C25.8469 29 24 30.8469 24 33.125ZM39.75 33.125C39.75 34.1609 38.9109 35 37.875 35H34.4391L36.0703 32.225C36.4266 31.6203 37.0734 31.25 37.7719 31.25H37.875C38.9109 31.25 39.75 32.0891 39.75 33.125ZM22.5 42.5V50.75C22.5 51.9922 23.5078 53 24.75 53H31.5V42.5H22.5ZM34.5 53H41.25C42.4922 53 43.5 51.9922 43.5 50.75V42.5H34.5V53Z" fill="url(#paint0_linear_24_30416)"/>
</g>
<path opacity="0.9" d="M11.448 65H19.104V74H17.04V66.788H13.512V74H11.448V65ZM25.0308 74.156C24.5508 74.156 24.1068 74.06 23.6988 73.868C23.2988 73.676 22.9908 73.42 22.7748 73.1H22.7508V76.316H20.8428V67.184H22.7148V68.084H22.7268C22.9988 67.716 23.3508 67.448 23.7828 67.28C24.2228 67.104 24.6828 67.016 25.1628 67.016C25.6348 67.016 26.0668 67.096 26.4588 67.256C26.8508 67.416 27.1868 67.648 27.4668 67.952C27.7468 68.248 27.9628 68.616 28.1148 69.056C28.2748 69.488 28.3548 69.98 28.3548 70.532C28.3548 70.988 28.2868 71.436 28.1508 71.876C28.0148 72.308 27.8108 72.696 27.5388 73.04C27.2668 73.376 26.9228 73.648 26.5068 73.856C26.0908 74.056 25.5988 74.156 25.0308 74.156ZM24.5988 72.572C24.8868 72.572 25.1388 72.52 25.3548 72.416C25.5788 72.304 25.7628 72.156 25.9068 71.972C26.0588 71.788 26.1748 71.572 26.2548 71.324C26.3348 71.076 26.3748 70.816 26.3748 70.544C26.3748 69.92 26.2028 69.44 25.8588 69.104C25.5148 68.768 25.0788 68.6 24.5508 68.6C24.2788 68.6 24.0308 68.648 23.8068 68.744C23.5828 68.84 23.3908 68.976 23.2308 69.152C23.0788 69.328 22.9588 69.536 22.8708 69.776C22.7908 70.016 22.7508 70.28 22.7508 70.568C22.7508 70.824 22.7868 71.072 22.8588 71.312C22.9388 71.552 23.0548 71.768 23.2068 71.96C23.3668 72.144 23.5588 72.292 23.7828 72.404C24.0148 72.516 24.2868 72.572 24.5988 72.572ZM29.6095 67.184H31.4695V71.576L34.0975 67.184H36.0295V74H34.1575V69.62L31.5415 74H29.6095V67.184ZM40.6829 74.18C39.6029 74.18 38.7909 73.964 38.2469 73.532C37.7109 73.092 37.3989 72.476 37.3109 71.684H39.1229C39.1949 72.044 39.3469 72.312 39.5789 72.488C39.8109 72.656 40.1549 72.74 40.6109 72.74C41.0349 72.74 41.3629 72.676 41.5949 72.548C41.8269 72.412 41.9429 72.2 41.9429 71.912V71.852C41.9429 71.54 41.8349 71.34 41.6189 71.252C41.4109 71.156 41.1029 71.108 40.6949 71.108H39.8789V69.896H40.5629C40.9069 69.896 41.1869 69.856 41.4029 69.776C41.6269 69.696 41.7389 69.52 41.7389 69.248V69.176C41.7389 68.896 41.6309 68.708 41.4149 68.612C41.2069 68.508 40.9229 68.456 40.5629 68.456C40.1309 68.456 39.8069 68.532 39.5909 68.684C39.3749 68.828 39.2389 69.092 39.1829 69.476H37.3829C37.4709 68.732 37.7869 68.136 38.3309 67.688C38.8829 67.232 39.6709 67.004 40.6949 67.004C41.1189 67.004 41.5109 67.04 41.8709 67.112C42.2389 67.184 42.5549 67.296 42.8189 67.448C43.0909 67.592 43.3029 67.784 43.4549 68.024C43.6069 68.264 43.6829 68.552 43.6829 68.888V68.948C43.6829 69.308 43.5789 69.612 43.3709 69.86C43.1629 70.108 42.8589 70.276 42.4589 70.364V70.388C42.9549 70.46 43.3189 70.632 43.5509 70.904C43.7829 71.168 43.8989 71.508 43.8989 71.924V71.996C43.8989 72.396 43.8149 72.736 43.6469 73.016C43.4869 73.288 43.2629 73.512 42.9749 73.688C42.6869 73.864 42.3469 73.988 41.9549 74.06C41.5629 74.14 41.1389 74.18 40.6829 74.18ZM45.2072 67.184H47.1152V69.2H48.3992C48.9112 69.2 49.3432 69.26 49.6952 69.38C50.0472 69.492 50.3312 69.652 50.5472 69.86C50.7712 70.068 50.9312 70.316 51.0272 70.604C51.1232 70.884 51.1712 71.192 51.1712 71.528V71.6C51.1712 71.928 51.1192 72.24 51.0152 72.536C50.9112 72.824 50.7472 73.076 50.5232 73.292C50.2992 73.508 50.0152 73.68 49.6712 73.808C49.3352 73.936 48.9312 74 48.4592 74H45.2072V67.184ZM51.8432 67.184H53.7632V74H51.8432V67.184ZM48.0632 72.56C48.4632 72.56 48.7592 72.488 48.9512 72.344C49.1432 72.2 49.2392 71.96 49.2392 71.624V71.552C49.2392 70.944 48.8592 70.64 48.0992 70.64H47.0552V72.56H48.0632Z" fill="white"/>
<defs>
<filter id="filter0_dd_24_30416" x="2" y="11" width="62" height="62" filterUnits="userSpaceOnUse" color-interpolation-filters="sRGB">
<feFlood flood-opacity="0" result="BackgroundImageFix"/>
<feColorMatrix in="SourceAlpha" type="matrix" values="0 0 0 0 0 0 0 0 0 0 0 0 0 0 0 0 0 0 127 0" result="hardAlpha"/>
<feOffset dy="2"/>
<feGaussianBlur stdDeviation="1"/>
<feComposite in2="hardAlpha" operator="out"/>
<feColorMatrix type="matrix" values="0 0 0 0 0 0 0 0 0 0 0 0 0 0 0 0 0 0 0.25 0"/>
<feBlend mode="normal" in2="BackgroundImageFix" result="effect1_dropShadow_24_30416"/>
<feColorMatrix in="SourceAlpha" type="matrix" values="0 0 0 0 0 0 0 0 0 0 0 0 0 0 0 0 0 0 127 0" result="hardAlpha"/>
<feOffset dy="1"/>
<feGaussianBlur stdDeviation="9.5"/>
<feComposite in2="hardAlpha" operator="out"/>
<feColorMatrix type="matrix" values="0 0 0 0 0.000957709 0 0 0 0 0.179997 0 0 0 0 0.597756 0 0 0 0.57 0"/>
<feBlend mode="normal" in2="effect1_dropShadow_24_30416" result="effect2_dropShadow_24_30416"/>
<feBlend mode="normal" in="SourceGraphic" in2="effect2_dropShadow_24_30416" result="shape"/>
</filter>
<linearGradient id="paint0_linear_24_30416" x1="33" y1="29" x2="33" y2="53" gradientUnits="userSpaceOnUse">
<stop offset="0.288462" stop-color="white"/>
<stop offset="1" stop-color="#C5D6FF"/>
</linearGradient>
</defs>
</svg>
