<svg width="54" height="53" viewBox="0 0 54 53" fill="none" xmlns="http://www.w3.org/2000/svg">
<g opacity="0.9" filter="url(#filter0_d_36_30536)">
<rect x="3" width="48" height="48" rx="8" fill="#3556E1" fill-opacity="0.2" shape-rendering="crispEdges"/>
<rect x="3.5" y="0.5" width="47" height="47" rx="7.5" stroke="url(#paint0_radial_36_30536)" style="mix-blend-mode:overlay" shape-rendering="crispEdges"/>
<path d="M30.9252 16.667C32.2752 16.667 33.3705 17.7613 33.3705 19.1113C33.3704 20.4613 32.2751 21.5557 30.9252 21.5557C30.3331 21.5556 29.7905 21.3445 29.3676 20.9941L25.1722 23.5117C25.2042 23.6695 25.222 23.8328 25.222 24C25.222 24.1669 25.2041 24.3298 25.1722 24.4873L29.3676 27.0049C29.7904 26.6548 30.3334 26.4444 30.9252 26.4443C32.2751 26.4443 33.3703 27.5388 33.3705 28.8887C33.3705 30.2387 32.2752 31.334 30.9252 31.334C29.5753 31.3338 28.4808 30.2386 28.4808 28.8887C28.4809 28.7218 28.4978 28.5588 28.5297 28.4014L24.3334 25.8838C23.9106 26.2334 23.3682 26.4443 22.7767 26.4443C21.427 26.4441 20.3325 25.3498 20.3324 24C20.3324 22.6501 21.4269 21.5559 22.7767 21.5557C23.3679 21.5557 23.9107 21.765 24.3334 22.1143L28.5297 19.5967C28.498 19.4398 28.4809 19.2775 28.4808 19.1113C28.4808 17.7614 29.5753 16.6672 30.9252 16.667Z" fill="white"/>
</g>
<defs>
<filter id="filter0_d_36_30536" x="-6.8112" y="-9.8112" width="67.6224" height="67.6224" filterUnits="userSpaceOnUse" color-interpolation-filters="sRGB">
<feFlood flood-opacity="0" result="BackgroundImageFix"/>
<feColorMatrix in="SourceAlpha" type="matrix" values="0 0 0 0 0 0 0 0 0 0 0 0 0 0 0 0 0 0 127 0" result="hardAlpha"/>
<feOffset dy="2.4"/>
<feGaussianBlur stdDeviation="1.2"/>
<feComposite in2="hardAlpha" operator="out"/>
<feColorMatrix type="matrix" values="0 0 0 0 0 0 0 0 0 0 0 0 0 0 0 0 0 0 0.25 0"/>
<feBlend mode="normal" in2="BackgroundImageFix" result="effect1_dropShadow_36_30536"/>
<feBlend mode="normal" in="SourceGraphic" in2="effect1_dropShadow_36_30536" result="shape"/>
</filter>
<radialGradient id="paint0_radial_36_30536" cx="0" cy="0" r="1" gradientUnits="userSpaceOnUse" gradientTransform="translate(26.6571 2.93024) rotate(91.1599) scale(67.7503 69.1061)">
<stop stop-color="white"/>
<stop offset="1" stop-color="white" stop-opacity="0"/>
</radialGradient>
</defs>
</svg>
