<svg width="66" height="76" viewBox="0 0 66 76" fill="none" xmlns="http://www.w3.org/2000/svg">
<g filter="url(#filter0_dd_24_30398)">
<path d="M21 33.3333C21 32.1841 21.4565 31.0819 22.2692 30.2692C23.0819 29.4565 24.1841 29 25.3333 29H40.6667C41.8159 29 42.9181 29.4565 43.7308 30.2692C44.5435 31.0819 45 32.1841 45 33.3333V48.6667C45 49.8159 44.5435 50.9181 43.7308 51.7308C42.9181 52.5435 41.8159 53 40.6667 53H25.3333C24.1841 53 23.0819 52.5435 22.2692 51.7308C21.4565 50.9181 21 49.8159 21 48.6667V33.3333ZM26.6667 43.6667C26.4015 43.6667 26.1471 43.772 25.9596 43.9596C25.772 44.1471 25.6667 44.4015 25.6667 44.6667C25.6667 44.9319 25.772 45.1862 25.9596 45.3738C26.1471 45.5613 26.4015 45.6667 26.6667 45.6667H31.3333C31.5985 45.6667 31.8529 45.5613 32.0404 45.3738C32.228 45.1862 32.3333 44.9319 32.3333 44.6667C32.3333 44.4015 32.228 44.1471 32.0404 43.9596C31.8529 43.772 31.5985 43.6667 31.3333 43.6667H26.6667ZM25.6667 37.3333C25.6667 37.8853 26.1147 38.3333 26.6667 38.3333H31.3333C31.5985 38.3333 31.8529 38.228 32.0404 38.0404C32.228 37.8529 32.3333 37.5985 32.3333 37.3333C32.3333 37.0681 32.228 36.8138 32.0404 36.6262C31.8529 36.4387 31.5985 36.3333 31.3333 36.3333H26.6667C26.4015 36.3333 26.1471 36.4387 25.9596 36.6262C25.772 36.8138 25.6667 37.0681 25.6667 37.3333ZM40.7067 36.7067C40.8833 36.5171 40.9795 36.2664 40.9749 36.0073C40.9703 35.7482 40.8654 35.5011 40.6822 35.3178C40.4989 35.1346 40.2518 35.0297 39.9927 35.0251C39.7336 35.0205 39.4829 35.1167 39.2933 35.2933L37.3333 37.2533L36.7067 36.6267C36.6151 36.5284 36.5047 36.4496 36.3821 36.395C36.2594 36.3403 36.127 36.3109 35.9927 36.3085C35.8584 36.3062 35.7251 36.3309 35.6005 36.3812C35.476 36.4315 35.3629 36.5063 35.268 36.6013C35.173 36.6962 35.0981 36.8094 35.0478 36.9339C34.9975 37.0584 34.9728 37.1918 34.9752 37.326C34.9776 37.4603 35.007 37.5927 35.0616 37.7154C35.1163 37.838 35.1951 37.9485 35.2933 38.04L36.6267 39.3733C36.8142 39.5606 37.0683 39.6658 37.3333 39.6658C37.5983 39.6658 37.8525 39.5606 38.04 39.3733L40.7067 36.7067ZM40.7067 42.6267C40.5192 42.4394 40.265 42.3342 40 42.3342C39.735 42.3342 39.4808 42.4394 39.2933 42.6267L37.3333 44.5867L36.7067 43.96C36.6151 43.8618 36.5047 43.7829 36.3821 43.7283C36.2594 43.6736 36.127 43.6442 35.9927 43.6419C35.8584 43.6395 35.7251 43.6642 35.6005 43.7145C35.476 43.7648 35.3629 43.8397 35.268 43.9346C35.173 44.0296 35.0981 44.1427 35.0478 44.2672C34.9975 44.3917 34.9728 44.5251 34.9752 44.6594C34.9776 44.7936 35.007 44.9261 35.0616 45.0487C35.1163 45.1714 35.1951 45.2818 35.2933 45.3733L36.6267 46.7067C36.8142 46.8939 37.0683 46.9991 37.3333 46.9991C37.5983 46.9991 37.8525 46.8939 38.04 46.7067L40.7067 44.04C40.8939 43.8525 40.9991 43.5983 40.9991 43.3333C40.9991 43.0683 40.8939 42.8142 40.7067 42.6267Z" fill="url(#paint0_linear_24_30398)"/>
</g>
<path opacity="0.9" d="M8.94 74.204C8.324 74.204 7.768 74.128 7.272 73.976C6.784 73.816 6.368 73.592 6.024 73.304C5.688 73.016 5.428 72.664 5.244 72.248C5.068 71.832 4.98 71.368 4.98 70.856V70.712H6.972V70.808C6.972 71.36 7.152 71.784 7.512 72.08C7.872 72.376 8.364 72.524 8.988 72.524C9.236 72.524 9.464 72.504 9.672 72.464C9.888 72.416 10.072 72.344 10.224 72.248C10.384 72.144 10.508 72.012 10.596 71.852C10.684 71.692 10.728 71.5 10.728 71.276V71.204C10.728 70.756 10.572 70.452 10.26 70.292C9.948 70.132 9.532 70.052 9.012 70.052H8.196V68.576H9.024C9.44 68.576 9.776 68.496 10.032 68.336C10.296 68.176 10.428 67.916 10.428 67.556V67.472C10.428 67.152 10.288 66.908 10.008 66.74C9.728 66.564 9.34 66.476 8.844 66.476C8.348 66.476 7.94 66.608 7.62 66.872C7.3 67.128 7.14 67.524 7.14 68.06V68.132H5.148V67.976C5.148 67.512 5.228 67.088 5.388 66.704C5.556 66.312 5.796 65.976 6.108 65.696C6.428 65.408 6.824 65.188 7.296 65.036C7.768 64.876 8.308 64.796 8.916 64.796C9.452 64.796 9.94 64.844 10.38 64.94C10.828 65.036 11.208 65.184 11.52 65.384C11.84 65.576 12.088 65.824 12.264 66.128C12.44 66.424 12.528 66.776 12.528 67.184V67.268C12.528 67.748 12.4 68.152 12.144 68.48C11.896 68.8 11.508 69.028 10.98 69.164V69.224C11.308 69.272 11.588 69.36 11.82 69.488C12.06 69.616 12.256 69.776 12.408 69.968C12.56 70.152 12.668 70.36 12.732 70.592C12.804 70.816 12.84 71.056 12.84 71.312V71.396C12.84 71.9 12.736 72.328 12.528 72.68C12.328 73.032 12.052 73.324 11.7 73.556C11.348 73.78 10.936 73.944 10.464 74.048C9.992 74.152 9.484 74.204 8.94 74.204ZM16.0948 74.132C15.7828 74.132 15.4868 74.088 15.2068 74C14.9348 73.912 14.6948 73.784 14.4868 73.616C14.2868 73.44 14.1268 73.228 14.0068 72.98C13.8948 72.732 13.8388 72.448 13.8388 72.128C13.8388 71.736 13.9108 71.42 14.0548 71.18C14.2068 70.94 14.4068 70.752 14.6548 70.616C14.9108 70.472 15.2028 70.368 15.5308 70.304C15.8668 70.232 16.2228 70.172 16.5988 70.124C16.9908 70.076 17.2988 70.036 17.5228 70.004C17.7468 69.964 17.9148 69.928 18.0268 69.896C18.1388 69.856 18.2068 69.812 18.2308 69.764C18.2628 69.716 18.2788 69.652 18.2788 69.572V69.44C18.2788 68.816 17.9108 68.504 17.1748 68.504C16.7668 68.504 16.4588 68.58 16.2508 68.732C16.0508 68.876 15.9388 69.12 15.9148 69.464H14.0668C14.1068 69.104 14.2028 68.776 14.3548 68.48C14.5068 68.176 14.7148 67.916 14.9788 67.7C15.2508 67.476 15.5748 67.304 15.9508 67.184C16.3348 67.064 16.7708 67.004 17.2588 67.004C18.1948 67.004 18.9148 67.22 19.4188 67.652C19.9308 68.076 20.1868 68.764 20.1868 69.716V74H18.3388V72.872H18.3268C18.1428 73.232 17.8668 73.532 17.4988 73.772C17.1388 74.012 16.6708 74.132 16.0948 74.132ZM16.8388 72.692C17.2788 72.692 17.6268 72.572 17.8828 72.332C18.1468 72.092 18.2788 71.716 18.2788 71.204V70.892C18.1348 70.94 17.9508 70.984 17.7268 71.024C17.5028 71.064 17.2228 71.108 16.8868 71.156C16.5188 71.212 16.2428 71.288 16.0588 71.384C15.8828 71.472 15.7948 71.64 15.7948 71.888C15.7948 72.16 15.8908 72.364 16.0828 72.5C16.2748 72.628 16.5268 72.692 16.8388 72.692ZM21.2903 72.392H21.9743C22.1423 72.072 22.2703 71.76 22.3583 71.456C22.4543 71.144 22.5263 70.82 22.5743 70.484C22.6223 70.148 22.6503 69.788 22.6583 69.404C22.6743 69.012 22.6823 68.58 22.6823 68.108V67.184H28.1543V72.392H29.1143V75.632H27.3863V74H23.0183V75.632H21.3022L21.2903 72.392ZM26.2463 72.416V68.768H24.3623V69.068C24.3623 69.796 24.3183 70.432 24.2303 70.976C24.1503 71.52 24.0143 72 23.8223 72.416H26.2463ZM32.2315 74.132C31.9195 74.132 31.6235 74.088 31.3435 74C31.0715 73.912 30.8315 73.784 30.6235 73.616C30.4235 73.44 30.2635 73.228 30.1435 72.98C30.0315 72.732 29.9755 72.448 29.9755 72.128C29.9755 71.736 30.0475 71.42 30.1915 71.18C30.3435 70.94 30.5435 70.752 30.7915 70.616C31.0475 70.472 31.3395 70.368 31.6675 70.304C32.0035 70.232 32.3595 70.172 32.7355 70.124C33.1275 70.076 33.4355 70.036 33.6595 70.004C33.8835 69.964 34.0515 69.928 34.1635 69.896C34.2755 69.856 34.3435 69.812 34.3675 69.764C34.3995 69.716 34.4155 69.652 34.4155 69.572V69.44C34.4155 68.816 34.0475 68.504 33.3115 68.504C32.9035 68.504 32.5955 68.58 32.3875 68.732C32.1875 68.876 32.0755 69.12 32.0515 69.464H30.2035C30.2435 69.104 30.3395 68.776 30.4915 68.48C30.6435 68.176 30.8515 67.916 31.1155 67.7C31.3875 67.476 31.7115 67.304 32.0875 67.184C32.4715 67.064 32.9075 67.004 33.3955 67.004C34.3315 67.004 35.0515 67.22 35.5555 67.652C36.0675 68.076 36.3235 68.764 36.3235 69.716V74H34.4755V72.872H34.4635C34.2795 73.232 34.0035 73.532 33.6355 73.772C33.2755 74.012 32.8075 74.132 32.2315 74.132ZM32.9755 72.692C33.4155 72.692 33.7635 72.572 34.0195 72.332C34.2835 72.092 34.4155 71.716 34.4155 71.204V70.892C34.2715 70.94 34.0875 70.984 33.8635 71.024C33.6395 71.064 33.3595 71.108 33.0235 71.156C32.6555 71.212 32.3795 71.288 32.1955 71.384C32.0195 71.472 31.9315 71.64 31.9315 71.888C31.9315 72.16 32.0275 72.364 32.2195 72.5C32.4115 72.628 32.6635 72.692 32.9755 72.692ZM37.883 67.184H39.791V69.644H42.299V67.184H44.207V74H42.299V71.252H39.791V74H37.883V67.184ZM45.8869 67.184H47.7469V71.576L50.3749 67.184H52.3069V74H50.4349V69.62L47.8189 74H45.8869V67.184ZM54.9202 71.6C54.5443 71.44 54.2443 71.204 54.0203 70.892C53.7963 70.572 53.6843 70.16 53.6843 69.656V69.584C53.6843 68.792 53.9323 68.196 54.4283 67.796C54.9243 67.388 55.6283 67.184 56.5403 67.184H59.9123V74H57.9923V71.912H56.7803L55.7123 74H53.5403L54.9202 71.6ZM58.0403 70.58V68.72H56.8883C56.4643 68.72 56.1563 68.788 55.9643 68.924C55.7723 69.06 55.6763 69.296 55.6763 69.632V69.704C55.6763 69.992 55.7643 70.212 55.9403 70.364C56.1243 70.508 56.4243 70.58 56.8403 70.58H58.0403Z" fill="white"/>
<defs>
<filter id="filter0_dd_24_30398" x="2" y="11" width="62" height="62" filterUnits="userSpaceOnUse" color-interpolation-filters="sRGB">
<feFlood flood-opacity="0" result="BackgroundImageFix"/>
<feColorMatrix in="SourceAlpha" type="matrix" values="0 0 0 0 0 0 0 0 0 0 0 0 0 0 0 0 0 0 127 0" result="hardAlpha"/>
<feOffset dy="2"/>
<feGaussianBlur stdDeviation="1"/>
<feComposite in2="hardAlpha" operator="out"/>
<feColorMatrix type="matrix" values="0 0 0 0 0 0 0 0 0 0 0 0 0 0 0 0 0 0 0.25 0"/>
<feBlend mode="normal" in2="BackgroundImageFix" result="effect1_dropShadow_24_30398"/>
<feColorMatrix in="SourceAlpha" type="matrix" values="0 0 0 0 0 0 0 0 0 0 0 0 0 0 0 0 0 0 127 0" result="hardAlpha"/>
<feOffset dy="1"/>
<feGaussianBlur stdDeviation="9.5"/>
<feComposite in2="hardAlpha" operator="out"/>
<feColorMatrix type="matrix" values="0 0 0 0 0.000957709 0 0 0 0 0.179997 0 0 0 0 0.597756 0 0 0 0.57 0"/>
<feBlend mode="normal" in2="effect1_dropShadow_24_30398" result="effect2_dropShadow_24_30398"/>
<feBlend mode="normal" in="SourceGraphic" in2="effect2_dropShadow_24_30398" result="shape"/>
</filter>
<linearGradient id="paint0_linear_24_30398" x1="33" y1="29" x2="33" y2="53" gradientUnits="userSpaceOnUse">
<stop offset="0.288462" stop-color="white"/>
<stop offset="1" stop-color="#C5D6FF"/>
</linearGradient>
</defs>
</svg>
