<svg width="54" height="53" viewBox="0 0 54 53" fill="none" xmlns="http://www.w3.org/2000/svg">
<g opacity="0.9" filter="url(#filter0_d_36_30533)">
<rect x="3" width="48" height="48" rx="8" fill="#3556E1" fill-opacity="0.2" shape-rendering="crispEdges"/>
<rect x="3.5" y="0.5" width="47" height="47" rx="7.5" stroke="url(#paint0_radial_36_30533)" style="mix-blend-mode:overlay" shape-rendering="crispEdges"/>
<path d="M26.8239 17.9733C27.3554 17.9733 27.8181 18.1475 28.212 18.496C28.6058 18.8444 28.8022 19.28 28.8014 19.8026C28.8014 20.2817 28.6581 20.7064 28.3714 21.0766C28.0848 21.4468 27.7603 21.7953 27.398 22.122C26.9089 22.5575 26.4785 23.0366 26.1068 23.5593C25.7351 24.082 25.5489 24.67 25.548 25.3233C25.548 25.6282 25.6599 25.8843 25.8836 26.0916C26.1073 26.2989 26.3675 26.4022 26.6644 26.4013C26.9833 26.4013 27.2547 26.2924 27.4784 26.0746C27.702 25.8568 27.8454 25.5846 27.9083 25.258C27.9934 24.8006 28.1847 24.3925 28.4824 24.0336C28.7801 23.6747 29.0991 23.3315 29.4393 23.004C29.9284 22.5248 30.3485 22.0022 30.6998 21.436C31.0511 20.8697 31.2263 20.2382 31.2255 19.5413C31.2255 18.4306 30.7844 17.5216 29.9024 16.8143C29.0204 16.1069 27.9942 15.7528 26.8239 15.752C26.0158 15.752 25.2452 15.9262 24.5121 16.2746C23.7789 16.6231 23.2205 17.1566 22.8369 17.8753C22.6881 18.1366 22.6404 18.4145 22.694 18.7089C22.7476 19.0034 22.8909 19.2264 23.124 19.378C23.4217 19.5522 23.73 19.6066 24.0489 19.5413C24.3679 19.476 24.6337 19.2908 24.8463 18.986C25.0802 18.6593 25.3728 18.4088 25.7241 18.2346C26.0754 18.0604 26.442 17.9733 26.8239 17.9733Z" fill="white"/>
<path d="M26.6325 31.432C27.079 31.432 27.4567 31.2738 27.7654 30.9576C28.0742 30.6414 28.2281 30.2551 28.2273 29.7986C28.2264 29.3422 28.0725 28.9554 27.7654 28.6383C27.4584 28.3212 27.0807 28.1635 26.6325 28.1653C26.1842 28.167 25.807 28.3251 25.5008 28.6396C25.1946 28.9541 25.0402 29.3404 25.0377 29.7986C25.0351 30.2568 25.1895 30.6436 25.5008 30.9589C25.8121 31.2743 26.1893 31.432 26.6325 31.432Z" fill="white"/>
</g>
<defs>
<filter id="filter0_d_36_30533" x="-6.8112" y="-9.8112" width="67.6224" height="67.6224" filterUnits="userSpaceOnUse" color-interpolation-filters="sRGB">
<feFlood flood-opacity="0" result="BackgroundImageFix"/>
<feColorMatrix in="SourceAlpha" type="matrix" values="0 0 0 0 0 0 0 0 0 0 0 0 0 0 0 0 0 0 127 0" result="hardAlpha"/>
<feOffset dy="2.4"/>
<feGaussianBlur stdDeviation="1.2"/>
<feComposite in2="hardAlpha" operator="out"/>
<feColorMatrix type="matrix" values="0 0 0 0 0 0 0 0 0 0 0 0 0 0 0 0 0 0 0.25 0"/>
<feBlend mode="normal" in2="BackgroundImageFix" result="effect1_dropShadow_36_30533"/>
<feBlend mode="normal" in="SourceGraphic" in2="effect1_dropShadow_36_30533" result="shape"/>
</filter>
<radialGradient id="paint0_radial_36_30533" cx="0" cy="0" r="1" gradientUnits="userSpaceOnUse" gradientTransform="translate(26.6571 2.93024) rotate(91.1599) scale(67.7503 69.1061)">
<stop stop-color="white"/>
<stop offset="1" stop-color="white" stop-opacity="0"/>
</radialGradient>
</defs>
</svg>
